# Blender v2.92.0 OBJ File: 'TunnelSmall.blend'
# www.blender.org
mtllib TunnelSmall.mtl
o TonnelRoof_Cube
v -579.224487 92.536964 -148.744858
v -579.224487 -92.867287 -148.744858
v -579.224487 92.536964 148.744919
v -579.224487 -92.867287 148.744919
v 579.224487 92.536964 -148.744858
v 579.224487 -92.867287 -148.744858
v 579.224487 92.536964 148.744919
v 579.224487 -92.867287 148.744919
v 579.224487 -91.232460 -117.151115
v -579.224487 -91.232460 -117.151115
v 579.224487 -92.867287 117.151161
v 579.224487 -91.232132 117.151161
v -579.224487 -92.867287 117.151161
v -579.224487 -91.232132 117.151161
v -579.224487 -92.867287 -117.151115
v 579.224487 -92.867287 -117.151115
v 579.224487 -90.872978 117.151161
v 579.224487 -32.471859 110.353973
v -579.224487 -90.872978 117.151161
v -579.224487 -32.471859 110.353973
v 579.224487 -3.159149 99.315933
v -579.224487 -3.159149 99.315933
v 579.224487 -64.277992 117.151161
v 579.224487 22.533644 84.461250
v 579.224487 -64.278320 -117.151115
v -579.224487 22.533644 84.461250
v 579.224487 -32.472160 -110.353973
v 579.224487 43.619167 66.360756
v 579.224487 -90.873299 -117.151115
v -579.224487 43.619167 66.360756
v 579.224487 -3.159422 -99.315971
v 579.224487 59.287132 45.710049
v -579.224487 59.287132 45.710049
v 579.224487 22.533411 -84.461311
v 579.224487 68.935379 23.302742
v -579.224487 68.935379 23.302742
v 579.224487 72.193192 -0.000079
v -579.224487 72.193192 -0.000079
v 579.224487 68.935318 -23.302895
v 579.224487 43.618984 -66.360863
v -579.224487 68.935318 -23.302895
v 579.224487 59.286987 -45.710194
v -579.224487 59.286987 -45.710194
v -579.224487 43.618984 -66.360863
v -579.224487 22.533411 -84.461311
v -579.224487 -3.159422 -99.315971
v -579.224487 -32.472160 -110.353973
v -579.224487 -64.278320 -117.151115
v -579.224487 -90.873299 -117.151115
v -579.224487 -64.277992 117.151161
v 579.224487 -74.882149 117.151161
v 579.224487 -74.585587 117.151161
v 579.224487 -74.585915 -117.151115
v -579.224487 -74.585587 117.151161
v -579.224487 -74.585915 -117.151115
v 149.209045 -91.232460 -117.151115
v 222.044556 -92.867287 -117.151115
v -222.058884 -92.867287 117.151161
v -149.208618 -91.232132 117.151161
vt 0.625000 0.500000
vt 0.625000 0.750000
vt 0.875000 0.750000
vt 0.875000 0.500000
vt 0.375000 0.750000
vt 0.375000 1.000000
vt 0.625000 1.000000
vt 0.375000 0.250000
vt 0.375000 0.500000
vt 0.625000 0.250000
vt 0.437500 0.505576
vt 0.468750 0.505575
vt 0.468750 0.994424
vt 0.437500 0.994425
vt 0.406250 0.994424
vt 0.406250 0.505576
vt 0.375000 0.994424
vt 0.375000 0.505576
vt 0.343750 0.994425
vt 0.343750 0.505576
vt 0.312500 0.994424
vt 0.312500 0.505576
vt 0.343750 0.505575
vt 0.281250 0.994424
vt 0.281250 0.505576
vt 0.250000 0.994424
vt 0.250000 0.505576
vt 0.218750 0.994424
vt 0.218750 0.505576
vt 0.218750 0.994424
vt 0.187500 0.994424
vt 0.187500 0.505576
vt 0.218750 0.505575
vt 0.156250 0.994424
vt 0.156250 0.505576
vt 0.125000 0.994424
vt 0.125000 0.505576
vt 0.093750 0.994424
vt 0.093750 0.505576
vt 0.062500 0.994425
vt 0.062500 0.505576
vt 0.031250 0.994425
vt 0.031250 0.505576
vt 0.468750 0.812964
vt 0.468750 0.994424
vt 0.468750 0.994425
vt 0.468750 0.505576
vt 0.468750 0.505576
vt 0.031250 0.687036
vt 0.031250 0.505576
vt 0.031250 0.505575
vt 0.031250 0.994425
vt 0.031250 0.994424
vt 0.468750 0.505575
vt 0.468750 0.843706
vt 0.468750 0.994425
vt 0.031250 0.656300
vt 0.031250 0.994425
vt 0.031250 0.505575
vt 0.125000 0.500000
vt 0.125000 0.526550
vt 0.202082 0.526550
vt 0.375000 0.526550
vt 0.125000 0.750000
vt 0.375000 0.723450
vt 0.297922 0.723450
vt 0.125000 0.723450
vt 0.468750 0.505576
vt 0.468750 0.994424
vt 0.468750 0.505575
vt 0.031250 0.994424
vt 0.031250 0.505575
vt 0.031250 0.505576
vt 0.375000 0.000000
vt 0.375000 0.026550
vt 0.377205 0.026550
vt 0.377689 0.026550
vt 0.399251 0.026550
vt 0.399651 0.026550
vt 0.413550 0.026550
vt 0.456437 0.032262
vt 0.495963 0.041538
vt 0.530607 0.054022
vt 0.559039 0.069233
vt 0.580166 0.086587
vt 0.593176 0.105417
vt 0.597568 0.125000
vt 0.593175 0.144583
vt 0.580166 0.163413
vt 0.559039 0.180767
vt 0.530607 0.195978
vt 0.495963 0.208462
vt 0.456437 0.217738
vt 0.413550 0.223450
vt 0.399651 0.223450
vt 0.377689 0.223450
vt 0.377204 0.223450
vt 0.375000 0.223450
vt 0.625000 0.000000
vt 0.377204 0.526550
vt 0.377689 0.526550
vt 0.399651 0.526550
vt 0.413550 0.526550
vt 0.456437 0.532262
vt 0.495962 0.541538
vt 0.530607 0.554022
vt 0.559039 0.569233
vt 0.580166 0.586587
vt 0.593175 0.605417
vt 0.597568 0.625000
vt 0.593176 0.644583
vt 0.580166 0.663413
vt 0.559039 0.680767
vt 0.530607 0.695978
vt 0.495963 0.708462
vt 0.456437 0.717738
vt 0.413550 0.723450
vt 0.399651 0.723450
vt 0.377689 0.723450
vt 0.377205 0.723450
vn 0.0000 1.0000 0.0000
vn 0.0000 0.0000 1.0000
vn 0.0000 0.0000 -1.0000
vn 0.0000 -0.2090 -0.9779
vn 0.0000 -0.3524 -0.9358
vn 0.0000 -0.5005 -0.8657
vn 0.0000 -0.6514 -0.7588
vn 0.0000 -0.7967 -0.6044
vn 0.0000 -0.9185 -0.3955
vn 0.0000 -0.9904 -0.1385
vn 0.0000 -0.9904 0.1385
vn 0.0000 -0.9185 0.3955
vn 0.0000 -0.7967 0.6044
vn 0.0000 -0.6514 0.7588
vn 0.0000 -0.5005 0.8657
vn 0.0000 -0.3524 0.9358
vn 0.0000 -0.2090 0.9779
vn 0.0000 -1.0000 0.0000
vn 1.0000 0.0000 0.0000
vn -1.0000 -0.0000 0.0000
usemtl Material
s off
f 1/1/1 3/2/1 7/3/1 5/4/1
f 4/5/2 8/6/2 7/7/2 3/2/2
f 6/8/3 2/9/3 1/1/3 5/10/3
f 18/11/4 23/12/4 50/13/4 20/14/4
f 20/14/5 22/15/5 21/16/5 18/11/5
f 22/15/6 26/17/6 24/18/6 21/16/6
f 26/17/7 30/19/7 28/20/7 24/18/7
f 30/19/8 33/21/8 32/22/8 28/23/8
f 33/21/9 36/24/9 35/25/9 32/22/9
f 36/24/10 38/26/10 37/27/10 35/25/10
f 38/26/11 41/28/11 39/29/11 37/27/11
f 41/30/12 43/31/12 42/32/12 39/33/12
f 43/31/13 44/34/13 40/35/13 42/32/13
f 40/35/14 44/34/14 45/36/14 34/37/14
f 34/37/15 45/36/15 46/38/15 31/39/15
f 31/39/16 46/38/16 47/40/16 27/41/16
f 27/41/17 47/40/17 48/42/17 25/43/17
f 59/44/3 14/45/3 19/46/3 17/47/3 12/48/3
f 56/49/2 9/50/2 29/51/2 49/52/2 10/53/2
f 11/54/3 58/55/3 59/44/3 12/48/3
f 59/44/3 58/55/3 13/56/3 14/45/3
f 57/57/2 56/49/2 10/53/2 15/58/2
f 56/49/2 57/57/2 16/59/2 9/50/2
f 6/60/18 16/61/18 57/62/18 15/63/18 2/9/18
f 8/64/18 4/5/18 13/65/18 58/66/18 11/67/18
f 23/12/3 52/68/3 54/69/3 50/13/3
f 19/46/3 54/69/3 52/68/3 51/70/3 17/47/3
f 55/71/2 53/72/2 25/43/2 48/42/2
f 53/72/2 55/71/2 49/52/2 29/73/2
f 8/74/19 11/75/19 12/76/19 17/77/19 51/78/19 52/79/19 23/80/19 18/81/19 21/82/19 24/83/19 28/84/19 32/85/19 35/86/19 37/87/19 39/88/19 42/89/19 40/90/19 34/91/19 31/92/19 27/93/19 25/94/19 53/95/19 29/96/19 9/97/19 16/98/19 6/8/19 5/10/19 7/99/19
f 10/100/20 49/101/20 55/102/20 48/103/20 47/104/20 46/105/20 45/106/20 44/107/20 43/108/20 41/109/20 38/110/20 36/111/20 33/112/20 30/113/20 26/114/20 22/115/20 20/116/20 50/117/20 54/118/20 19/119/20 14/120/20 13/65/20 4/5/20 3/2/20 1/1/20 2/9/20 15/63/20
o Tunnel_Cylinder
v 592.437012 -91.357452 117.151154
v -592.437012 -91.357407 117.151154
v 592.437012 -59.551311 110.353958
v -592.437012 -59.551258 110.353958
v 592.437012 -30.238602 99.315933
v -592.437012 -30.238548 99.315933
v 592.437012 -4.545808 84.461243
v -592.437012 -4.545757 84.461243
v 592.437012 16.539715 66.360748
v -592.437012 16.539766 66.360748
v 592.437012 32.207668 45.710049
v -592.437012 32.207722 45.710049
v 592.437012 41.855923 23.302742
v -592.437012 41.855976 23.302742
v 592.437012 45.113724 -0.000079
v -592.437012 45.113777 -0.000079
v 592.437012 41.855862 -23.302895
v -592.437012 41.855915 -23.302895
v 592.437012 32.207535 -45.710190
v -592.437012 32.207588 -45.710190
v 592.437012 16.539534 -66.360863
v -592.437012 16.539585 -66.360863
v 592.437012 -4.546040 -84.461319
v -592.437012 -4.545989 -84.461319
v 592.437012 -30.238876 -99.315979
v -592.437012 -30.238823 -99.315979
v 592.437012 -59.551617 -110.353973
v -592.437012 -59.551563 -110.353973
v 592.437012 -91.357773 -117.151115
v -592.437012 -91.357727 -117.151115
v 592.437012 -64.762459 117.151154
v -592.437012 -64.762413 117.151154
v 592.437012 -32.956326 110.353958
v -592.437012 -32.956272 110.353958
v 592.437012 -3.643616 99.315933
v -592.437012 -3.643564 99.315933
v 592.437012 22.049177 84.461243
v -592.437012 22.049231 84.461243
v 592.437012 43.134701 66.360748
v -592.437012 43.134754 66.360748
v 592.437012 58.802666 45.710049
v -592.437012 58.802719 45.710049
v 592.437012 68.450912 23.302742
v -592.437012 68.450958 23.302742
v 592.437012 71.708725 -0.000079
v -592.437012 71.708771 -0.000079
v 592.437012 68.450851 -23.302895
v -592.437012 68.450897 -23.302895
v 592.437012 58.802525 -45.710190
v -592.437012 58.802578 -45.710190
v 592.437012 43.134518 -66.360863
v -592.437012 43.134571 -66.360863
v 592.437012 22.048944 -84.461319
v -592.437012 22.048998 -84.461319
v 592.437012 -3.643888 -99.315979
v -592.437012 -3.643837 -99.315979
v 592.437012 -32.956631 -110.353973
v -592.437012 -32.956577 -110.353973
v 592.437012 -64.762787 -117.151115
v -592.437012 -64.762741 -117.151115
vt 0.468750 0.500000
vt 0.468750 1.000000
vt 0.437500 1.000000
vt 0.437500 0.500000
vt 0.406250 1.000000
vt 0.406250 0.500000
vt 0.375000 1.000000
vt 0.375000 0.500000
vt 0.343750 1.000000
vt 0.343750 0.500000
vt 0.312500 1.000000
vt 0.312500 0.500000
vt 0.281250 1.000000
vt 0.281250 0.500000
vt 0.250000 1.000000
vt 0.250000 0.500000
vt 0.218750 1.000000
vt 0.218750 0.500000
vt 0.187500 1.000000
vt 0.187500 0.500000
vt 0.156250 1.000000
vt 0.156250 0.500000
vt 0.125000 1.000000
vt 0.125000 0.500000
vt 0.093750 1.000000
vt 0.093750 0.500000
vt 0.062500 1.000000
vt 0.062500 0.500000
vt 0.031250 1.000000
vt 0.031250 0.500000
vt 0.468750 0.500000
vt 0.437500 0.500000
vt 0.437500 1.000000
vt 0.468750 1.000000
vt 0.406250 0.500000
vt 0.406250 1.000000
vt 0.375000 0.500000
vt 0.375000 1.000000
vt 0.343750 0.500000
vt 0.343750 1.000000
vt 0.312500 0.500000
vt 0.312500 1.000000
vt 0.281250 0.500000
vt 0.281250 1.000000
vt 0.250000 0.500000
vt 0.250000 1.000000
vt 0.218750 0.500000
vt 0.218750 1.000000
vt 0.187500 0.500000
vt 0.187500 1.000000
vt 0.156250 0.500000
vt 0.156250 1.000000
vt 0.125000 0.500000
vt 0.125000 1.000000
vt 0.093750 0.500000
vt 0.093750 1.000000
vt 0.062500 0.500000
vt 0.062500 1.000000
vt 0.031250 0.500000
vt 0.031250 1.000000
vn -0.0000 -0.2090 -0.9779
vn -0.0000 -0.3524 -0.9358
vn -0.0000 -0.5005 -0.8657
vn -0.0000 -0.6514 -0.7588
vn -0.0000 -0.7967 -0.6044
vn -0.0000 -0.9185 -0.3955
vn -0.0000 -0.9904 -0.1385
vn -0.0000 -0.9904 0.1385
vn -0.0000 -0.9185 0.3955
vn -0.0000 -0.7967 0.6044
vn -0.0000 -0.6514 0.7588
vn -0.0000 -0.5005 0.8657
vn -0.0000 -0.3524 0.9358
vn -0.0000 -0.2090 0.9779
vn 0.0000 0.2090 0.9779
vn 0.0000 0.3524 0.9358
vn 0.0000 0.5005 0.8657
vn 0.0000 0.6514 0.7588
vn 0.0000 0.7967 0.6044
vn 0.0000 0.9185 0.3955
vn 0.0000 0.9904 0.1385
vn 0.0000 0.9904 -0.1385
vn 0.0000 0.9185 -0.3955
vn 0.0000 0.7967 -0.6044
vn 0.0000 0.6514 -0.7588
vn 0.0000 0.5005 -0.8657
vn 0.0000 0.3524 -0.9358
vn 0.0000 0.2090 -0.9779
vn -1.0000 0.0000 0.0000
vn 1.0000 0.0000 0.0000
vn 0.0000 0.0000 1.0000
vn 0.0000 0.0000 -1.0000
usemtl None
s off
f 60/121/21 61/122/21 63/123/21 62/124/21
f 62/124/22 63/123/22 65/125/22 64/126/22
f 64/126/23 65/125/23 67/127/23 66/128/23
f 66/128/24 67/127/24 69/129/24 68/130/24
f 68/130/25 69/129/25 71/131/25 70/132/25
f 70/132/26 71/131/26 73/133/26 72/134/26
f 72/134/27 73/133/27 75/135/27 74/136/27
f 74/136/28 75/135/28 77/137/28 76/138/28
f 76/138/29 77/137/29 79/139/29 78/140/29
f 78/140/30 79/139/30 81/141/30 80/142/30
f 80/142/31 81/141/31 83/143/31 82/144/31
f 82/144/32 83/143/32 85/145/32 84/146/32
f 84/146/33 85/145/33 87/147/33 86/148/33
f 86/148/34 87/147/34 89/149/34 88/150/34
f 90/151/35 92/152/35 93/153/35 91/154/35
f 92/152/36 94/155/36 95/156/36 93/153/36
f 94/155/37 96/157/37 97/158/37 95/156/37
f 96/157/38 98/159/38 99/160/38 97/158/38
f 98/159/39 100/161/39 101/162/39 99/160/39
f 100/161/40 102/163/40 103/164/40 101/162/40
f 102/163/41 104/165/41 105/166/41 103/164/41
f 104/165/42 106/167/42 107/168/42 105/166/42
f 106/167/43 108/169/43 109/170/43 107/168/43
f 108/169/44 110/171/44 111/172/44 109/170/44
f 110/171/45 112/173/45 113/174/45 111/172/45
f 112/173/46 114/175/46 115/176/46 113/174/46
f 114/175/47 116/177/47 117/178/47 115/176/47
f 116/177/48 118/179/48 119/180/48 117/178/48
f 61/122/49 91/154/49 93/153/49 63/123/49
f 79/139/49 109/170/49 111/172/49 81/141/49
f 72/134/50 102/163/50 100/161/50 70/132/50
f 71/131/49 101/162/49 103/164/49 73/133/49
f 64/126/50 94/155/50 92/152/50 62/124/50
f 82/144/50 112/173/50 110/171/50 80/142/50
f 63/123/49 93/153/49 95/156/49 65/125/49
f 81/141/49 111/172/49 113/174/49 83/143/49
f 74/136/50 104/165/50 102/163/50 72/134/50
f 73/133/49 103/164/49 105/166/49 75/135/49
f 66/128/50 96/157/50 94/155/50 64/126/50
f 84/146/50 114/175/50 112/173/50 82/144/50
f 65/125/49 95/156/49 97/158/49 67/127/49
f 83/143/49 113/174/49 115/176/49 85/145/49
f 76/138/50 106/167/50 104/165/50 74/136/50
f 75/135/49 105/166/49 107/168/49 77/137/49
f 68/130/50 98/159/50 96/157/50 66/128/50
f 86/148/50 116/177/50 114/175/50 84/146/50
f 67/127/49 97/158/49 99/160/49 69/129/49
f 85/145/49 115/176/49 117/178/49 87/147/49
f 78/140/50 108/169/50 106/167/50 76/138/50
f 77/137/49 107/168/49 109/170/49 79/139/49
f 70/132/50 100/161/50 98/159/50 68/130/50
f 88/150/50 118/179/50 116/177/50 86/148/50
f 60/121/51 90/151/51 91/154/51 61/122/51
f 69/129/49 99/160/49 101/162/49 71/131/49
f 87/147/49 117/178/49 119/180/49 89/149/49
f 62/124/50 92/152/50 90/151/50 60/121/50
f 80/142/50 110/171/50 108/169/50 78/140/50
f 89/149/52 119/180/52 118/179/52 88/150/52
